<svg xmlns="http://www.w3.org/2000/svg" width="263" height="84" viewBox="0 0 263 84"><defs><style>.a{fill:#592c82;}.b{fill:#fff;}</style></defs><g transform="translate(8482 1832)"><rect class="a" width="263" height="84" transform="translate(-8482 -1832)"/><g transform="translate(-8434 -1803.434)"><path class="b" d="M590.006,21.747a2,2,0,1,1-1.981-1.947,1.947,1.947,0,0,1,1.981,1.947Zm-3.5,0a1.513,1.513,0,0,0,1.519,1.552,1.52,1.52,0,1,0-1.519-1.541Zm1.2,1.007h-.451V20.806a5.466,5.466,0,0,1,.746-.058,1.037,1.037,0,0,1,.665.153.492.492,0,0,1,.2.415.5.5,0,0,1-.4.465V21.8c.192.061.278.214.345.473a1.673,1.673,0,0,0,.142.476h-.476a1.685,1.685,0,0,1-.153-.476c-.033-.2-.153-.295-.4-.295h-.214Zm0-1.091h.214c.248,0,.451-.083.451-.278s-.131-.3-.417-.3a.953.953,0,0,0-.248.025Z" transform="translate(-423.695 -14.318)"/><path class="b" d="M0,.72H2.824V9.25H13.445V.72h2.821V21.368H13.445V11.695H2.824v9.673H0Z" transform="translate(0 -0.52)"/><path class="b" d="M76.475,20.364A5.678,5.678,0,0,1,78.748,22.3a6.619,6.619,0,0,1,1.007,2.632,17.117,17.117,0,0,1,.223,3.289H69.025A6.4,6.4,0,0,0,70.1,31.873a3.592,3.592,0,0,0,3.107,1.381,4.017,4.017,0,0,0,3.135-1.29,4.373,4.373,0,0,0,.929-1.729h2.487a5.162,5.162,0,0,1-.654,1.823,6.666,6.666,0,0,1-1.238,1.657,5.857,5.857,0,0,1-2.829,1.469,8.737,8.737,0,0,1-2.05.224,6.312,6.312,0,0,1-4.729-2.033A7.851,7.851,0,0,1,66.31,27.7a8.62,8.62,0,0,1,1.947-5.844,6.4,6.4,0,0,1,5.11-2.243,6.9,6.9,0,0,1,3.107.754Zm.9,5.863a6.542,6.542,0,0,0-.712-2.618,3.63,3.63,0,0,0-3.439-1.82,3.813,3.813,0,0,0-2.9,1.243,4.745,4.745,0,0,0-1.238,3.187Z" transform="translate(-47.863 -14.154)"/><path class="b" d="M129.7,25.736a1.372,1.372,0,0,0,1.163-.729,2.269,2.269,0,0,0,.164-.967,2.056,2.056,0,0,0-.918-1.873,4.858,4.858,0,0,0-2.623-.58,3.331,3.331,0,0,0-2.8,1.066,3.488,3.488,0,0,0-.6,1.757h-2.354a4.355,4.355,0,0,1,1.8-3.867,7.39,7.39,0,0,1,4.02-1.088,8.217,8.217,0,0,1,4.306,1.005,3.411,3.411,0,0,1,1.641,3.132v8.634a1.1,1.1,0,0,0,.161.632.791.791,0,0,0,.684.235q.19,0,.378-.019c.142-.017.295-.033.453-.066v1.848a7.494,7.494,0,0,1-.9.21,7.233,7.233,0,0,1-.835.041,2.092,2.092,0,0,1-1.9-.917,3.554,3.554,0,0,1-.434-1.381,6.48,6.48,0,0,1-2.226,1.746,6.884,6.884,0,0,1-3.188.751,4.749,4.749,0,0,1-3.419-1.265,4.189,4.189,0,0,1-1.327-3.165,4.071,4.071,0,0,1,1.3-3.226,6.25,6.25,0,0,1,3.425-1.417Zm-5.325,6.778a2.988,2.988,0,0,0,1.9.624,5.84,5.84,0,0,0,2.584-.6,3.423,3.423,0,0,0,2.1-3.314v-2.03a4.189,4.189,0,0,1-1.188.508,8.792,8.792,0,0,1-1.43.276l-1.525.185a5.783,5.783,0,0,0-2.067.552,2.206,2.206,0,0,0-1.174,2.08A2.049,2.049,0,0,0,124.372,32.514Z" transform="translate(-87.448 -14.042)"/><path class="b" d="M180,.72h2.534V21.368H180Z" transform="translate(-130.141 -0.52)"/><path class="b" d="M199.788,5.87h2.534v4.173h2.423v2.095h-2.423V21.93a1.053,1.053,0,0,0,.537,1.049,2.281,2.281,0,0,0,1,.156h.392a4.139,4.139,0,0,0,.5-.053v2.025a5.6,5.6,0,0,1-.9.189,8.882,8.882,0,0,1-1.018.056,2.746,2.746,0,0,1-2.4-.907,3.978,3.978,0,0,1-.634-2.348V12.127H197.74V10.032h2.048Z" transform="translate(-142.973 -4.237)"/><path class="b" d="M232.38.56h2.537V8.235a7.2,7.2,0,0,1,1.616-1.605,5.458,5.458,0,0,1,3.046-.8q3.28,0,4.451,2.292a7.845,7.845,0,0,1,.629,3.472v9.662h-2.6V11.763a5.235,5.235,0,0,0-.423-2.429A2.673,2.673,0,0,0,239.054,8.1,4.326,4.326,0,0,0,236.2,9.179q-1.277,1.085-1.277,4.089v7.984h-2.537Z" transform="translate(-168.029 -0.404)"/><path class="b" d="M302.362,4.138H291.4V8.545h10.062v3.592H291.4v5.336h11.47v3.722h-15.7V.48h15.192Z" transform="translate(-207.655 -0.346)"/><path class="b" d="M357.465,19.384a6.179,6.179,0,0,1,1.391,1.758V18.892h3.878V40.238h-3.956V32.3a4.264,4.264,0,0,1-1.536,1.669,5.317,5.317,0,0,1-2.974.726,5.813,5.813,0,0,1-4.529-2.131,8.3,8.3,0,0,1-1.87-5.681,9.358,9.358,0,0,1,1.875-6.12,5.794,5.794,0,0,1,4.624-2.3A4.664,4.664,0,0,1,357.465,19.384Zm.862,10.079a6.9,6.9,0,0,0,.556-2.966,6.272,6.272,0,0,0-.478-2.526,3.021,3.021,0,0,0-3.01-2.006,2.935,2.935,0,0,0-2.437,1.171,5.683,5.683,0,0,0-.926,3.558,6.765,6.765,0,0,0,.426,2.612,2.9,2.9,0,0,0,2.924,1.947A3.052,3.052,0,0,0,358.327,29.464Z" transform="translate(-251.545 -13.443)"/><path class="b" d="M413.893,19.781V28.96a4.731,4.731,0,0,0,.312,1.955,2.126,2.126,0,0,0,2.139,1.157,2.8,2.8,0,0,0,2.8-1.657,5.944,5.944,0,0,0,.39-2.361V19.77h4.053V35.006h-3.872V32.857a4.649,4.649,0,0,0-.278.414,2.591,2.591,0,0,1-.534.616,5.6,5.6,0,0,1-1.822,1.135,6.339,6.339,0,0,1-2.056.3q-3.4,0-4.573-2.422a9.287,9.287,0,0,1-.662-3.952V19.781Z" transform="translate(-296.316 -14.27)"/><path class="b" d="M472.161,3.7H468.11V0h4.05ZM468.11,5.511h4.051V20.848H468.11Z" transform="translate(-338.451)"/><path class="b" d="M490.63,12.039V9.215h2.137V4.92h3.967v4.3h2.487v2.824h-2.487v8.129a1.819,1.819,0,0,0,.239,1.18,2.642,2.642,0,0,0,1.46.231h.387a2.287,2.287,0,0,0,.4-.05v2.982l-1.894.109c-1.895.07-3.191-.262-3.895-.982a2.958,2.958,0,0,1-.676-2.134V12.045Z" transform="translate(-354.848 -3.551)"/><path class="b" d="M530.534,38.1l.512.036a6.257,6.257,0,0,0,1.127-.036,2,2,0,0,0,.9-.325,2.191,2.191,0,0,0,.662-1.007,2.333,2.333,0,0,0,.248-.935L528.35,19.81H532.8l3.339,11.314,3.166-11.314h4.259l-5.25,15.075a21.257,21.257,0,0,1-2.409,5.4c-.587.7-1.772,1.049-3.542,1.049h-.854c-.214,0-.556-.025-.976-.056Z" transform="translate(-382.075 -14.414)"/></g></g></svg>